<?xml version="1.0" encoding="iso-8859-1"?>
<!-- Generator: Adobe Illustrator 19.0.0, SVG Export Plug-In . SVG Version: 6.00 Build 0)  -->
<svg version="1.1" id="Capa_1" xmlns="http://www.w3.org/2000/svg" xmlns:xlink="http://www.w3.org/1999/xlink" x="0px" y="0px"
	 viewBox="0 0 512 512" style="enable-background:new 0 0 512 512;" xml:space="preserve">
<g>
	<g>
		<path d="M510.911,309.975c-0.184-0.302-18.215-30.667-7.539-68.908c6.898-24.708,11.127-59.176-7.903-83.053
			c-12.335-15.477-30.079-20.647-43.018-20.345c-7.592-6.122-17.063-11.497-28.804-15.305c-24.768-8.034-56.917-4.126-94.143,0.402
			c-48.375,5.882-102.957,12.507-159.238-3.691c1.461-2.367,2.81-4.93,3.979-7.724c1.339-3.196,0.313-6.894-2.482-8.943
			c-0.494-0.362-5.072-3.609-13.789-6.16c-10.867-3.181-23.263-3.983-36.861-2.4c-12.45-2.987-26.422-16.045-30.875-20.971
			c-1.523-1.693-3.75-2.607-6.011-2.47c-2.275,0.133-4.366,1.293-5.684,3.152c-0.342,0.482-8.343,11.991-5.738,26.844
			c0.164,0.934,0.378,1.855,0.615,2.77L6.432,173.501c-5.604,5.936-7.72,14.195-5.659,22.094l3.628,13.909
			c2.719,10.424,12.082,17.611,22.863,17.611c0.146,0,0.293-0.002,0.438-0.004c21.021-0.381,38.95-2.106,53.728-5.156
			c30.432,43.296,71.476,71.205,83.948,79.094l0.906,95.149l-17.789,4.447c-7.848,1.961-14.06,7.714-16.618,15.388l-5.233,15.699
			c-0.763,2.287-0.379,4.802,1.031,6.758c1.409,1.955,3.673,3.114,6.084,3.114h48.096c2.508,0,4.85-1.253,6.24-3.34l13.043-19.563
			c2.548-3.821,4.257-8.24,4.944-12.786l14.916-86.885c18.621,2.616,34.806,3.726,49.035,3.726c23.408,0,41.533-2.996,56.584-7.182
			c3.535,2.14,13.976,7.929,28.339,11.199c1.095,0.249,2.188,0.471,3.281,0.68l-1.013,6.559c-0.633,4.094,2.173,7.925,6.267,8.558
			c0.389,0.06,0.773,0.089,1.154,0.089c3.637,0,6.831-2.65,7.403-6.355l1.118-7.234c0.691,0.016,1.382,0.03,2.071,0.03
			c5.201,0,10.333-0.476,15.37-1.41l2.955,10.715c0.918,3.326,3.936,5.508,7.227,5.508c0.66,0,1.331-0.088,1.998-0.272
			c3.993-1.101,6.337-5.23,5.235-9.224l-2.974-10.782c3.799-1.446,7.52-3.179,11.15-5.193l19.68,37.358v39.338l-14.44,5.31
			c-6.934,2.354-12.447,7.894-14.764,14.843l-5.481,16.443c-0.763,2.287-0.379,4.802,1.031,6.757
			c1.409,1.956,3.673,3.115,6.084,3.115h48.096c2.991,0,5.696-1.777,6.884-4.523l12.74-29.46c2.594-5.996,3.908-12.351,3.908-18.885
			v-58.84c0-0.881-0.155-1.755-0.458-2.582c-0.106-0.288-10.564-29.161-10.564-59.542c0-11.751,2.418-21.076,4.979-30.949
			c3.381-13.036,7.212-27.811,6.033-50.107c-0.401-7.586-3.43-19.131-10.889-30.683c5.244,2.319,10.418,5.951,14.704,11.329
			c11.937,14.978,13.73,39.069,5.187,69.671c-12.404,44.431,8.275,79.262,9.162,80.723c1.411,2.325,3.884,3.61,6.419,3.61
			c1.325,0,2.668-0.352,3.884-1.089C511.93,318.129,513.059,313.517,510.911,309.975z M87.297,93.52
			c0.034-0.842,0.118-1.655,0.238-2.434c5.915,5.167,14.379,11.542,23.608,15.257c-3.416,6.689-8.646,8.264-11.591,8.592
			C91.106,108.514,86.985,101.318,87.297,93.52z M96.992,217.878c13.236-4.35,22.831-10.214,28.706-17.571
			c7.529-9.429,6.031-17.955,5.835-18.896c-0.844-4.056-4.816-6.666-8.869-5.816c-4.056,0.843-6.66,4.814-5.816,8.869
			c0.005,0.023,0.016,2.868-2.87,6.483c-5.932,7.428-25.062,20.055-86.545,21.167c-0.052,0.001-0.103,0.002-0.153,0.002
			c-3.89-0.001-7.392-2.669-8.364-6.397l-3.629-13.909c-0.747-2.864,0.021-5.859,2.029-7.987l63.299-66.453
			c3.196,4.038,7.298,7.803,12.293,11.275c1.087,0.755,2.354,1.209,3.674,1.316c0.525,0.042,1.082,0.065,1.668,0.065
			c8.292,0,22.265-4.548,28.287-21.634c14.667-1.17,24.823,1.254,30.595,3.391c-8.365,12.972-21.806,17.476-22.114,17.576
			c-3.938,1.237-6.137,5.427-4.916,9.373c0.997,3.219,3.961,5.284,7.163,5.284c0.734,0,1.481-0.108,2.22-0.337
			c0.639-0.198,10.555-3.378,20.286-12.101c37.236,11.774,74.275,13.706,108.597,12.072c-7.886,24.075-28.95,25.901-53.039,27.969
			c-20.435,1.753-41.563,3.566-53.632,20.695c-6.364,9.032-8.431,18.929-10.255,27.659c-3.039,14.55-5.288,25.256-23.97,32.11
			C117.213,242.313,106.602,230.842,96.992,217.878z M334.329,170.818c-2.991-2.864-7.738-2.763-10.604,0.229
			c-3.061,3.196-6.305,6.621-9.345,10.25c-9.961,11.889-9.62,28.863,0.85,42.24c9.578,12.239,28.22,20.199,48.273,10.396
			c5.623-2.75,11.588-6.396,17.355-9.924c10.981-6.714,24.65-15.069,30.854-13.108c0.6,0.189,2.193,0.692,3.742,4.254
			c10.501,24.152,20.227,33.11,39.906,35.601c-0.876,5.227-1.451,10.815-1.451,17.019c0,29.607,8.856,57.122,11.022,63.408v57.554
			h0.004c0,4.475-0.9,8.825-2.676,12.932l-10.784,24.937h-32.762l2.19-6.572c0.845-2.534,2.861-4.551,5.396-5.396
			c0.073-0.024,0.146-0.05,0.217-0.076l19.449-7.151c2.951-1.085,4.912-3.896,4.912-7.039v-46.426c0-1.218-0.297-2.418-0.864-3.495
			l-51.81-98.351c-1.932-3.664-6.467-5.07-10.131-3.141c-3.665,1.931-5.071,6.467-3.141,10.131l8.672,16.462
			c-2.346,0.454-4.702,0.99-7.101,1.628c-4.003,1.065-6.384,5.174-5.319,9.177c0.894,3.356,3.927,5.573,7.243,5.573
			c0.639,0,1.287-0.082,1.934-0.254c3.611-0.961,7.103-1.656,10.61-2.139l8.239,15.641c-24.533,13.797-48.245,8.995-62.387,3.584
			c5.372-2.107,10.379-4.271,15.189-6.35c3.802-1.644,5.552-6.059,3.907-9.86c-1.644-3.801-6.057-5.553-9.86-3.907
			c-26.611,11.505-59.582,25.75-132.521,15.597l3.118-18.164c0.701-4.082-2.04-7.96-6.123-8.66c-4.078-0.705-7.96,2.041-8.66,6.123
			l-20.586,119.918c-0.01,0.056-0.019,0.112-0.027,0.169c-0.356,2.401-1.255,4.737-2.601,6.755l-10.816,16.225h-33.676l1.942-5.827
			c0.928-2.782,3.18-4.868,6.025-5.579l23.525-5.882c3.364-0.842,5.713-3.88,5.681-7.348l-1.002-105.21
			c-0.025-2.639-1.436-5.07-3.714-6.402c-0.29-0.169-16.66-9.857-36.93-27.235c20.158-10.115,23.471-25.914,26.431-40.084
			c1.675-8.018,3.256-15.592,7.833-22.088c8.047-11.42,24.855-12.863,42.652-14.39c26.135-2.243,58.49-5.026,67.609-43.914
			c16.566-1.286,32.37-3.202,47.094-4.992c3.375-0.41,6.707-0.815,9.991-1.206c1.665,3.735,1.851,7.207,0.591,10.991
			c-1.308,3.931,0.818,8.177,4.748,9.484c0.786,0.262,1.584,0.386,2.369,0.386c3.142,0,6.069-1.989,7.115-5.134
			c1.948-5.855,2.102-11.697,0.477-17.451c24.726-2.565,46.126-3.377,62.414,1.905c32.274,10.469,45.147,36.161,45.926,50.877
			c1.056,19.982-2.314,32.979-5.574,45.55c-0.256,0.989-0.513,1.982-0.769,2.98c-14.056-1.426-20.319-6-29.39-26.864
			c-2.835-6.521-7.202-10.752-12.98-12.577c-12.726-4.02-27.526,5.032-43.197,14.615c-5.724,3.5-11.13,6.806-16.118,9.244
			c-13.355,6.528-24.188,1.098-29.873-6.164c-4.986-6.371-7.279-16.065-1.164-23.362c2.745-3.276,5.793-6.494,8.681-9.509
			C337.422,178.431,337.32,173.683,334.329,170.818z"/>
	</g>
</g>
<g>
	<g>
		<path d="M288.362,225.69c-19.921-16.601-47.03-24.881-67.457-20.617c-9.595,2.006-17.792,7.412-22.488,14.835
			c-3.634,5.74-4.809,12.332-3.309,18.561c2.533,10.522,12.733,13.86,21.732,16.806c8.208,2.686,16.694,5.463,21.242,12.906
			c6.832,11.18,16.417,18.815,26.295,20.95c1.902,0.411,3.796,0.615,5.671,0.614c5.253,0,10.346-1.602,14.97-4.742
			c8.603-5.844,20.115-15.18,20.78-28.729C306.299,246.038,300.433,235.75,288.362,225.69z M276.59,272.592
			c-2.878,1.955-5.834,2.567-9.045,1.874c-5.715-1.234-12.101-6.642-16.665-14.11c-7.43-12.158-19.599-16.141-29.376-19.34
			c-5.526-1.809-11.241-3.679-11.814-6.061c-0.558-2.315-0.087-4.68,1.399-7.028c2.503-3.955,7.319-7.011,12.883-8.173
			c15.931-3.332,38.457,3.851,54.786,17.458c5.679,4.732,12.381,11.753,12.059,18.322C290.48,262.39,282.536,268.553,276.59,272.592
			z"/>
	</g>
</g>
<g>
	<g>
		<circle cx="79.799" cy="153.547" r="7.5"/>
	</g>
</g>
<g>
</g>
<g>
</g>
<g>
</g>
<g>
</g>
<g>
</g>
<g>
</g>
<g>
</g>
<g>
</g>
<g>
</g>
<g>
</g>
<g>
</g>
<g>
</g>
<g>
</g>
<g>
</g>
<g>
</g>
</svg>
