<?xml version="1.0" encoding="iso-8859-1"?>
<!-- Generator: Adobe Illustrator 19.0.0, SVG Export Plug-In . SVG Version: 6.00 Build 0)  -->
<svg version="1.1" id="Capa_1" xmlns="http://www.w3.org/2000/svg" xmlns:xlink="http://www.w3.org/1999/xlink" x="0px" y="0px"
	 viewBox="0 0 512.002 512.002" style="enable-background:new 0 0 512.002 512.002;" xml:space="preserve">
<g>
	<g>
		<path d="M495.135,492.243c-12.132-3.148-21.782-14.493-22.946-26.978c-0.566-6.058,0.62-12.572,1.878-19.469
			c0.445-2.435,0.904-4.954,1.293-7.501c1.466-9.576,2.531-23.695-5.1-35.698c-6.748-10.639-19.041-17.48-35.543-19.783
			c-4.797-0.674-9.523-0.97-14.095-1.256c-6.398-0.401-12.442-0.78-18.06-2.127c-7.219-1.738-14.082-5.449-17.892-9.329
			l10.444-10.444c1.882-1.882,2.94-4.436,2.94-7.099c0-2.662-1.058-5.216-2.94-7.099l-23.962-23.962
			c1.295-16.068-3.753-33.443-14.258-49.11c14.438-26.794,22.045-56.931,22.045-87.585C378.939,82.901,296.042,0,194.148,0
			C92.248,0,9.346,82.901,9.346,184.801s82.901,184.801,184.801,184.801c27.545,0,54.937-6.22,79.64-18.016
			c14.588,10.365,31.157,16.042,46.626,16.042c1.605,0,3.198-0.067,4.776-0.191l23.973,23.972c1.883,1.882,4.436,2.94,7.099,2.94
			c2.662,0,5.216-1.058,7.099-2.94l7.093-7.093c7.467,7.566,18.298,12.441,27.419,14.636c7.319,1.755,14.526,2.207,21.495,2.643
			c4.385,0.275,8.527,0.534,12.567,1.101c5.988,0.836,16.728,3.331,21.377,10.663c3.012,4.737,3.733,11.9,2.203,21.899
			c-0.346,2.264-0.76,4.532-1.198,6.934c-1.447,7.931-2.943,16.132-2.117,24.939c1.951,20.945,17.534,39.262,37.894,44.546
			c0.846,0.219,1.694,0.324,2.529,0.324c4.462,0,8.537-2.999,9.711-7.52C503.724,499.115,500.502,493.635,495.135,492.243z
			 M194.149,349.523c-90.828,0-164.723-73.894-164.723-164.723S103.319,20.078,194.148,20.078
			c90.823,0,164.713,73.894,164.713,164.723c0,24.634-5.525,48.88-16.032,70.907c-4.613-4.412-9.544-8.311-14.747-11.661
			c8.191-18.543,12.497-38.833,12.497-59.247c0-80.748-65.689-146.441-146.431-146.441c-80.748,0-146.441,65.693-146.441,146.441
			c0,80.742,65.694,146.431,146.441,146.431c17.986,0,35.419-3.198,51.96-9.496c3.198,5.347,6.96,10.428,11.265,15.196
			C237.452,345.194,215.856,349.523,194.149,349.523z M237.727,303.44c-13.888,5.119-28.505,7.714-43.579,7.714
			c-69.677,0-126.363-56.681-126.363-126.353c0-69.677,56.686-126.363,126.363-126.363c69.671,0,126.353,56.686,126.353,126.363
			c0,17.308-3.587,34.502-10.407,50.26c-23.458-8.523-46.893-5.079-61.656,9.673C234.202,258.971,230.402,280.824,237.727,303.44z
			 M327.117,346.991c-14.241,2.472-31.356-3.093-45.818-14.897c-0.021-0.017-0.043-0.033-0.064-0.05l-0.001-0.001
			c-2.036-1.658-4.065-3.496-6.029-5.459c-6.477-6.476-11.811-14.027-15.428-21.841c-8.266-17.826-7.144-35.807,2.857-45.808
			c5.596-5.592,13.54-8.413,22.552-8.413c7.901,0,16.623,2.169,25.294,6.542c0.006,0.002,0.011,0.005,0.016,0.008
			c7.145,3.586,13.804,8.441,19.793,14.43c2.442,2.442,4.718,5.027,6.778,7.698c10.893,14.076,15.987,30.604,13.628,44.214
			c-1.097,6.327-3.739,11.618-7.848,15.728C338.746,343.242,333.45,345.884,327.117,346.991z M365.063,361.31
			c-0.018,0.018-0.037,0.036-0.055,0.055l-8.747,8.747l-9.197-9.197c3.667-2.081,7.021-4.616,9.981-7.576
			c2.962-2.962,5.496-6.316,7.578-9.978l9.194,9.194L365.063,361.31z"/>
	</g>
</g>
<g>
	<g>
		<path d="M194.148,123.612c-33.745,0-61.199,27.449-61.199,61.189s27.454,61.189,61.199,61.189
			c33.74,0,61.189-27.449,61.189-61.189S227.887,123.612,194.148,123.612z M194.148,225.912c-22.674,0-41.12-18.442-41.12-41.11
			s18.447-41.11,41.12-41.11c22.668,0,41.11,18.442,41.11,41.11C235.258,207.47,216.816,225.912,194.148,225.912z"/>
	</g>
</g>
<g>
	<g>
		<path d="M134.562,98.949c-3.583-4.229-9.921-4.75-14.149-1.165c-25.631,21.732-40.331,53.449-40.331,87.017
			c0,5.545,4.496,10.039,10.039,10.039s10.039-4.495,10.039-10.039c0-27.658,12.114-53.792,33.237-71.702
			C137.627,109.513,138.148,103.179,134.562,98.949z"/>
	</g>
</g>
<g>
	<g>
		<path d="M148.914,80.983c-12.919,0-12.941,20.078,0,20.078C161.833,101.061,161.855,80.983,148.914,80.983z"/>
	</g>
</g>
<g>
</g>
<g>
</g>
<g>
</g>
<g>
</g>
<g>
</g>
<g>
</g>
<g>
</g>
<g>
</g>
<g>
</g>
<g>
</g>
<g>
</g>
<g>
</g>
<g>
</g>
<g>
</g>
<g>
</g>
</svg>
