<svg id="Layer_1" enable-background="new 0 0 512 512" height="512" viewBox="0 0 512 512" width="512" xmlns="http://www.w3.org/2000/svg"><g><path d="m446.332 410.857c4.143 0 7.5-3.358 7.5-7.5v-25.014c0-28.312-8.579-55.521-24.811-78.686-3.926-5.603-7.412-11.365-10.362-17.126-6.986-13.643-10.68-29.215-10.68-45.035v-5.813c7.101-2.929 12.115-9.92 12.115-18.065v-10.535c0-10.774-8.766-19.54-19.54-19.54h-25.178c4.794-12.774 7.219-26.22 7.219-40.092v-51.514c0-19.073-15.518-34.59-34.591-34.59h-20.298v-11.552c12.577-.058 22.792-10.305 22.792-22.896.001-12.627-10.271-22.899-22.897-22.899h-89.719c-4.143 0-7.5 3.358-7.5 7.5s3.357 7.5 7.5 7.5h89.719c4.355 0 7.898 3.543 7.898 7.898s-3.543 7.899-7.898 7.899c-6.541 0-207.109 0-214.438 0-4.355 0-7.898-3.543-7.898-7.899 0-4.355 3.543-7.898 7.898-7.898h89.719c4.143 0 7.5-3.358 7.5-7.5s-3.357-7.5-7.5-7.5h-89.719c-12.626 0-22.898 10.272-22.898 22.898 0 12.591 10.215 22.838 22.792 22.896v11.552h-20.298c-19.073 0-34.591 15.517-34.591 34.59v51.514c0 24.716 7.831 48.685 23.03 68.845v256.628c0 23.752 19.323 43.076 43.075 43.076h302.744c14.785 0 26.814-12.029 26.814-26.814v-46.829c0-4.142-3.357-7.5-7.5-7.5s-7.5 3.358-7.5 7.5v46.829c0 6.514-5.3 11.814-11.814 11.814h-103.844c-6.471 0-11.813-5.358-11.813-11.814v-106.842c0-15.142 2.729-29.865 8.164-43.944 6.097-3.912 26.693-14.505 51.521 1.43 20.653 13.256 42.567 13.963 61.804 4.695 3.941 12.108 5.983 24.83 5.983 37.818v25.014c0 4.143 3.357 7.501 7.5 7.501zm-41.237-207.774v10.535c0 2.368-1.957 4.54-4.615 4.54h-50.768c-2.649 0-4.615-2.163-4.615-4.54v-10.535c0-2.461 2.079-4.54 4.539-4.54h50.919c2.461 0 4.54 2.079 4.54 4.54zm-102.4 13.124c0-.001-.001-.001 0 0-4.928-1.782-12.252-2.091-19.184 6.56-.986 1.22-2.074 1.286-2.923.639-10.239-7.817-21.862-11.949-33.611-11.949h-53.191c-11.749 0-23.372 4.132-33.613 11.949-.842.644-1.933.583-2.921-.639-11.653-14.547-29.726-6.228-29.726 9.309-12.249-6.191-22.835-14.671-31.328-24.815v-82.819c0-4.354 1.626-8.513 4.579-11.712 12.008-13.009 27.279-26.377 27.279-53.56v-13.373h184.65v13.373c0 27.157 15.372 40.66 27.279 53.56 2.953 3.199 4.579 7.358 4.579 11.712v59.768c-8.428 2.269-14.47 10.028-14.47 18.873v10.535c0 2.125.39 4.472 1.177 6.641-5.59 4.601-11.625 8.541-18.036 11.802.002-8.025-4.435-13.647-10.54-15.854zm-4.458 15.022v27.593c0 .41-.259.779-.644.917-.264.096-.419.114-.42.119-.631-.195-1.981-1.998-2.404-2.505-5.824-6.996-16.051-8.15-23.282-2.63-7.603 5.804-16.077 8.872-24.51 8.872h-53.191c-8.433 0-16.908-3.068-24.511-8.872-7.235-5.523-17.461-4.362-23.281 2.631-.399.477-1.778 2.309-2.368 2.499-.754-.083-1.1-.533-1.1-1.03v-27.593c0-.41.259-.779.643-.917.261-.094.413-.112.416-.117.632.192 1.987 1.995 2.409 2.503 5.823 6.997 16.051 8.152 23.281 2.63 7.604-5.804 16.079-8.872 24.511-8.872h53.191c8.432 0 16.907 3.068 24.51 8.872 7.234 5.521 17.462 4.364 23.283-2.632.397-.477 1.781-2.309 2.373-2.496.507-.026 1.094.406 1.094 1.028zm69.359-139.292v51.514c0 13.648-2.705 26.812-8.03 39.189v-58.197c0-8.136-3.039-15.909-8.558-21.886-11.398-12.349-17.715-17.771-21.392-30.21h18.39c10.802-.001 19.59 8.787 19.59 19.59zm-294.428 51.514v-51.514c0-10.802 8.788-19.59 19.591-19.59h18.389c-3.71 12.549-10.179 18.062-21.392 30.209-5.519 5.978-8.558 13.75-8.558 21.887v58.4c-5.203-12.155-8.03-25.491-8.03-39.392zm23.03 325.473v-240.293c9.245 8.301 19.793 15.056 31.328 19.994v10.198c0 13.74 17.72 23.461 29.722 8.468l.275-.341c.664-.797 1.828-.931 2.65-.303 10.239 7.817 21.862 11.949 33.612 11.949h53.191c11.75 0 23.373-4.132 33.61-11.948.85-.648 1.94-.58 2.928.644 11.972 14.959 29.722 5.303 29.722-8.468v-10.212c10.197-4.366 19.652-10.153 28.193-17.284.26.121.516.247.782.357v5.812c0 15.818-3.692 31.39-10.679 45.033-2.95 5.762-6.438 11.525-10.365 17.129-16.229 23.162-24.809 50.371-24.809 78.685v106.843c0 3.904.884 8.027 2.75 11.814h-174.835c-15.48-.001-28.075-12.596-28.075-28.077zm282.948-145.718c-19.242-12.35-36.742-12.318-49.477-9.167 6.989-11.262 27.542-35.462 27.542-76.543v-4.338h35.768v4.339c0 46.17 24.092 67.237 34.333 89.054-8.515 4.374-26.817 10.356-48.166-3.345z"/></g></svg>