<?xml version="1.0" encoding="iso-8859-1"?>
<!-- Generator: Adobe Illustrator 19.0.0, SVG Export Plug-In . SVG Version: 6.00 Build 0)  -->
<svg version="1.1" id="Layer_1" xmlns="http://www.w3.org/2000/svg" xmlns:xlink="http://www.w3.org/1999/xlink" x="0px" y="0px"
	 viewBox="0 0 511.999 511.999" style="enable-background:new 0 0 511.999 511.999;" xml:space="preserve">
<g>
	<g>
		<path d="M403.079,205.036h-19.062c-2.199-11.466-12.306-20.156-24.403-20.156c-12.098,0-22.204,8.69-24.404,20.156H111.732
			c-8.152,0-14.784,6.632-14.784,14.784v31.913c0,8.151,6.632,14.783,14.784,14.783h1.192l4.625,74.967
			c-22.599,38.524-28.638,62.212-18.986,74.443c4.384,5.556,10.989,7.244,16.876,7.244c2.591,0,5.038-0.329,7.101-0.797
			l3.771,61.122c0.987,15.983,14.304,28.504,30.317,28.504h201.554c16.014,0,29.331-12.521,30.318-28.524l5.354-90.655
			c0.244-4.14-2.913-7.694-7.053-7.939c-4.139-0.247-7.694,2.914-7.939,7.053l-5.353,90.635
			c-0.499,8.081-7.232,14.411-15.328,14.411H156.628c-8.096,0-14.829-6.33-15.328-14.411l-3.942-63.884
			c65.197-18.191,119.677-63.731,154.757-99.946c5.982-6.175,11.583-12.257,16.803-18.148h12.646c4.147,0,7.509-3.362,7.509-7.509
			c0-4.081-3.257-7.394-7.312-7.499c5.681-6.875,10.723-13.3,15.087-19.068h49.994l-1.176,19.058h-24.07
			c-4.147,0-7.509,3.362-7.509,7.509c0,4.147,3.362,7.509,7.509,7.509h23.143l-3.208,51.99c-0.255,4.139,2.893,7.701,7.032,7.957
			c4.15,0.256,7.701-2.893,7.957-7.032l3.591-58.203c0.217-0.702,0.335-1.448,0.335-2.221c0-0.44-0.046-0.868-0.118-1.288
			l1.56-25.279h1.192c8.152,0,14.784-6.632,14.784-14.783v-31.913C417.863,211.668,411.231,205.036,403.079,205.036z
			 M120.768,407.322c-0.218,0.047-0.434,0.104-0.647,0.17c-1.87,0.58-7.906,1.492-9.768-0.868c-0.669-0.847-5.03-8.023,8.945-36.803
			l2.302,37.31C121.321,407.19,121.046,407.262,120.768,407.322z M302.089,285.574h-7.086c-4.147,0-7.509,3.362-7.509,7.509
			c0,2.33,1.061,4.412,2.727,5.789c-2.868,3.111-5.825,6.254-8.892,9.419c-33.196,34.27-84.303,77.168-144.919,95.022
			l-6.338-102.721h125.921c4.147,0,7.509-3.362,7.509-7.509c0-4.147-3.362-7.509-7.509-7.509H129.146l-1.176-19.058h189.855
			C313.144,272.446,307.887,278.858,302.089,285.574z M402.847,251.498h-0.002h-8.018h-47.032c2.989-4.266,5.27-7.678,6.799-10.016
			h10.495c4.147,0,7.509-3.362,7.509-7.509c0-4.147-3.362-7.509-7.509-7.509h-14.6c-2.601,0-5.016,1.346-6.385,3.557
			c-0.108,0.175-5.298,8.501-14.831,21.476H119.984h-8.018v-31.444h230.558c2.204,0,4.296-0.968,5.723-2.648
			c1.427-1.679,2.044-3.901,1.688-6.075c-0.101-0.616-0.15-1.141-0.15-1.603c0-5.42,4.41-9.83,9.83-9.83s9.83,4.409,9.83,9.83
			c0,0.462-0.049,0.987-0.15,1.603c-0.356,2.174,0.261,4.396,1.688,6.075c1.426,1.68,3.519,2.648,5.723,2.648h26.141V251.498z"/>
	</g>
</g>
<g>
	<g>
		<circle cx="161.249" cy="443.939" r="8.595"/>
	</g>
</g>
<g>
	<g>
		<circle cx="191.339" cy="471.869" r="8.595"/>
	</g>
</g>
<g>
	<g>
		<circle cx="348.689" cy="322.859" r="8.595"/>
	</g>
</g>
<g>
	<g>
		<path d="M371.133,0H140.862c-4.147,0-7.509,3.362-7.509,7.509c0,29.355,10.49,57.643,29.574,79.865l-12.073,20.911
			c-8.104,14.037-3.277,32.049,10.759,40.153l1.443,0.833c14.036,8.105,32.05,3.277,40.153-10.759l9.391-16.267
			c4.303,1.627,8.716,3.018,13.17,4.148v9.89c0,15.681,11.978,29.125,27.268,30.607c0.968,0.094,1.936,0.14,2.901,0.14
			c7.477,0,14.762-2.784,20.346-7.851c6.317-5.735,9.94-13.889,9.94-22.372v-10.414c4.454-1.13,8.868-2.52,13.17-4.148l9.391,16.267
			c3.914,6.779,10.256,11.633,17.856,13.67c7.601,2.037,15.519,1.004,22.298-2.911l1.442-0.833
			c6.779-3.913,11.633-10.254,13.67-17.855c2.036-7.601,1.003-15.52-2.911-22.298l-12.073-20.911
			c3.378-3.933,6.527-8.106,9.377-12.426c2.284-3.462,1.329-8.12-2.132-10.403c-3.462-2.285-8.12-1.329-10.403,2.133
			c-2.796,4.238-5.92,8.315-9.286,12.118c-3.565,4.029-4.151,9.869-1.459,14.532l12.97,22.465c1.908,3.305,2.408,7.176,1.41,10.902
			c-0.998,3.725-3.368,6.828-6.673,8.736l-1.443,0.833c-3.303,1.907-7.176,2.41-10.901,1.411c-3.726-0.998-6.829-3.368-8.737-6.673
			l-10.469-18.134c-3.086-5.343-9.74-7.645-15.479-5.356c-4.867,1.941-9.917,3.535-15.008,4.738
			c-5.67,1.339-9.629,6.343-9.629,12.169v12.387c0,4.256-1.829,8.358-5.017,11.252c-3.221,2.924-7.374,4.301-11.703,3.884
			c-7.682-0.745-13.699-7.623-13.699-15.66v-11.863c0-5.826-3.959-10.83-9.628-12.169c-5.092-1.203-10.141-2.797-15.008-4.738
			c-5.739-2.29-12.394,0.013-15.479,5.356l-10.469,18.133c-3.963,6.866-12.774,9.225-19.638,5.263l-1.443-0.833
			c-6.865-3.963-9.226-12.773-5.263-19.638l12.97-22.465c2.693-4.664,2.106-10.504-1.459-14.533
			C159.623,61,150.275,38.591,148.631,15.017h214.735c-0.467,6.773-1.568,13.471-3.287,19.994c-1.057,4.01,1.337,8.118,5.347,9.175
			c4.01,1.058,8.118-1.336,9.175-5.347c2.682-10.173,4.041-20.714,4.041-31.33C378.642,3.362,375.28,0,371.133,0z"/>
	</g>
</g>
<g>
	<g>
		<circle cx="183.259" cy="54.079" r="8.595"/>
	</g>
</g>
<g>
	<g>
		<circle cx="213.339" cy="82.009" r="8.595"/>
	</g>
</g>
<g>
	<g>
		<circle cx="325.409" cy="30.535" r="8.595"/>
	</g>
</g>
<g>
</g>
<g>
</g>
<g>
</g>
<g>
</g>
<g>
</g>
<g>
</g>
<g>
</g>
<g>
</g>
<g>
</g>
<g>
</g>
<g>
</g>
<g>
</g>
<g>
</g>
<g>
</g>
<g>
</g>
</svg>
