<svg id="Capa_1" enable-background="new 0 0 512 512" height="512" viewBox="0 0 512 512" width="512" xmlns="http://www.w3.org/2000/svg"><g><path d="m105.617 131.033-44.376 95.163c-8.265 17.725-3.951 38.143 9.258 51.132l-7.426 15.924c-10.51 22.539-.777 49.29 21.768 59.801 2.022.943 4.082 1.707 6.159 2.328v21.619c0 41.355 33.645 75 75 75h15v60h150v-60h15c41.355 0 75-33.645 75-75v-21.619c2.078-.621 4.137-1.384 6.159-2.327 22.488-10.486 32.254-37.313 21.768-59.802l-7.426-15.924c13.209-12.99 17.523-33.408 9.259-51.133l-44.377-95.162-27.189 12.678-15.337-32.891c26.944-23.566 46.269-56.826 53.598-92.829l3.663-17.991h-330.237l3.663 17.992c7.334 36.031 26.621 69.235 53.598 92.829l-15.336 32.891zm-8.099 194.832c-7.496-3.496-10.751-12.438-7.256-19.934l19.019-40.784-13.596-6.339c-7.513-3.504-10.759-12.419-7.255-19.934l6.339-13.595 81.569 38.033-6.341 13.599c-3.495 7.496-12.438 10.75-19.934 7.255l-13.595-6.339-19.018 40.783c-3.493 7.495-12.435 10.75-19.932 7.255zm203.482 156.135h-90v-30h30v-45c0-8.271 6.729-15 15-15s15 6.729 15 15v45h30zm90-105c0 24.813-20.187 45-45 45-9.267 0-29.597 0-45 0v-15c0-24.813-20.187-45-45-45s-45 20.187-45 45v15c-9.267 0-29.597 0-45 0-24.813 0-45-20.187-45-45v-23.174c10.072-4.15 18.686-11.911 23.642-22.537l7.426-15.925c18.435 1.772 36.856-8.053 45.12-25.775l44.375-95.163-27.189-12.679 15.313-32.838c17.344 2.779 35.283 2.779 52.627 0l15.313 32.838-27.189 12.679 44.375 95.163c8.429 18.076 27.042 27.56 45.13 25.795l7.416 15.905c4.956 10.627 13.57 18.388 23.642 22.537v23.174zm26.23-151.721 6.34 13.595c3.495 7.496.24 16.438-7.256 19.934l-13.596 6.339 19.019 40.783c3.495 7.496.24 16.438-7.256 19.934-7.499 3.497-16.438.241-19.934-7.254l-19.019-40.784-13.594 6.339c-7.511 3.503-16.429.26-19.934-7.255l-6.341-13.599zm-25.357-54.378 12.679 27.189-81.57 38.033-12.677-27.186zm-263.011-140.921h254.215c-16.955 48.664-52.428 67.824-56.538 71.797l25.466 54.613-27.189 12.678-25.456-54.589-11.903 2.84c-20.477 4.885-42.437 4.885-62.914 0l-11.903-2.84-25.456 54.589-27.189-12.679 25.466-54.613c-4.085-3.947-39.526-22.909-56.599-71.796zm72.833 178.957-12.677 27.186-81.569-38.033 12.678-27.189z"/></g></svg>