<?xml version="1.0" encoding="iso-8859-1"?>
<!-- Generator: Adobe Illustrator 19.0.0, SVG Export Plug-In . SVG Version: 6.00 Build 0)  -->
<svg version="1.1" id="Capa_1" xmlns="http://www.w3.org/2000/svg" xmlns:xlink="http://www.w3.org/1999/xlink" x="0px" y="0px"
	 viewBox="0 0 512.005 512.005" style="enable-background:new 0 0 512.005 512.005;" xml:space="preserve">
<g>
	<g>
		<rect x="68.267" y="124.244" width="17.067" height="17.067"/>
	</g>
</g>
<g>
	<g>
		<path d="M511.377,238.377c0.418-1.024,0.623-2.108,0.623-3.2v-93.867c0-32.939-26.803-59.733-59.733-59.733H179.2v17.067h273.067
			c23.526,0,42.667,19.14,42.667,42.667v92.211l-11.401,28.237c-4.173,10.317-4.173,21.683-0.009,31.983l10.906,27.145
			l-31.394,102.025h-17.758l15.394-92.476c0.452-2.714-0.427-5.478-2.381-7.432l-44.723-44.723
			c-7.962-7.945-12.518-18.961-12.51-30.225v-12.885h-17.067v12.885c-0.009,15.761,6.374,31.181,17.519,42.3l41.609,41.609
			l-16.341,98.074c-0.41,2.475,0.29,5.001,1.911,6.921s4.002,3.021,6.511,3.021h34.133c3.746,0,7.057-2.441,8.158-6.016
			l34.133-110.933c0.58-1.869,0.495-3.874-0.239-5.692l-12.041-29.969c-2.5-6.195-2.5-13.005,0-19.2L511.377,238.377z"/>
	</g>
</g>
<g>
	<g>
		<path d="M494.933,166.91v17.067c0,9.412-7.654,17.067-17.067,17.067s-17.067-7.654-17.067-17.067v-8.533
			c0-18.825-15.309-34.133-34.133-34.133h-25.6v17.067h25.6c9.412,0,17.067,7.654,17.067,17.067v8.533
			c0,18.825,15.309,34.133,34.133,34.133S512,202.802,512,183.977V166.91H494.933z"/>
	</g>
</g>
<g>
	<g>
		<path d="M33.536,73.044H8.533C3.823,73.044,0,76.867,0,81.577c0,16.102,2.449,35.891,21.973,46.387l8.533,4.011l7.262-15.462
			l-8.124-3.797c-7.441-4.002-11.153-10.615-12.228-22.605h16.23c7.646-0.435,14.694,3.089,19.652,8.764l12.86-11.213
			C57.899,78.198,45.628,72.805,33.536,73.044z"/>
	</g>
</g>
<g>
	<g>
		<path d="M236.22,294.91c-12.254-0.094-23.031,8.226-25.626,20.361l-21.333,107.64h-18.594v-121.95
			c-0.017-5.871-2.065-11.605-5.751-16.111l-60.322-74.325c-4.881-6.007-12.109-9.464-19.857-9.472H35.524
			c-10.146-0.034-18.432-8.311-18.458-18.441c0-3.226,0.828-6.409,2.432-9.25l38.835-70.025
			C65.587,92.312,79.121,86.91,91.17,89.675l25.6,8.533c2.748,0.905,5.769,0.375,8.038-1.442c9.335-7.492,21.99-9.327,33.237-4.753
			l14.959,5.76c-7.134,14.191-14.583,17.161-19.968,17.937h-16.503v17.067H153.6c0.35,0,0.7-0.017,1.058-0.051
			c16.666-2.057,29.005-14.037,37.717-36.625c0.811-2.116,0.751-4.463-0.162-6.537c-0.922-2.065-2.62-3.686-4.736-4.497l-23.134-8.9
			c-15.334-6.263-32.657-4.489-46.327,4.48l-22.212-7.373c-19.797-4.591-40.576,3.729-52.062,21.239L4.599,165.042
			C1.587,170.392,0,176.476,0,182.646c0.06,19.499,15.974,35.413,35.499,35.465h49.22c2.577,0.009,4.992,1.161,6.613,3.166
			l60.348,74.342c1.237,1.51,1.92,3.413,1.92,5.35v130.475c0,4.719,3.823,8.533,8.533,8.533h34.133c4.079,0,7.578-2.876,8.371-6.878
			l22.673-114.381c0.853-4.002,4.454-6.929,8.721-6.741h190.635V294.91H236.22z"/>
	</g>
</g>
<g>
</g>
<g>
</g>
<g>
</g>
<g>
</g>
<g>
</g>
<g>
</g>
<g>
</g>
<g>
</g>
<g>
</g>
<g>
</g>
<g>
</g>
<g>
</g>
<g>
</g>
<g>
</g>
<g>
</g>
</svg>
